<mxfile host="app.diagrams.net" modified="2022-01-21T02:34:06.210Z" agent="5.0 (Windows NT 10.0; Win64; x64) AppleWebKit/537.36 (KHTML, like Gecko) Chrome/97.0.4692.71 Safari/537.36" etag="cnltMKY5EStJ4nCYH3dh" version="16.2.7" type="github">
  <diagram id="dm8cerpeOq_uR4GG1cyV" name="Page-1">
    <mxGraphModel dx="1422" dy="754" grid="1" gridSize="10" guides="1" tooltips="1" connect="1" arrows="1" fold="1" page="1" pageScale="1" pageWidth="850" pageHeight="1100" math="0" shadow="0">
      <root>
        <mxCell id="0" />
        <mxCell id="1" parent="0" />
        <mxCell id="t7YPZ5av8xRuogo3YmNZ-1" value="" style="rounded=0;whiteSpace=wrap;html=1;" vertex="1" parent="1">
          <mxGeometry x="60" y="40" width="650" height="630" as="geometry" />
        </mxCell>
        <mxCell id="t7YPZ5av8xRuogo3YmNZ-3" value="&lt;font style=&quot;font-size: 25px&quot;&gt;&amp;lt;h1/&amp;gt;&lt;/font&gt;" style="text;html=1;strokeColor=none;fillColor=none;align=center;verticalAlign=middle;whiteSpace=wrap;rounded=0;" vertex="1" parent="1">
          <mxGeometry x="325" y="80" width="85" height="30" as="geometry" />
        </mxCell>
        <mxCell id="t7YPZ5av8xRuogo3YmNZ-5" value="" style="rounded=0;whiteSpace=wrap;html=1;fontSize=25;" vertex="1" parent="1">
          <mxGeometry x="130" y="130" width="490" height="40" as="geometry" />
        </mxCell>
        <mxCell id="t7YPZ5av8xRuogo3YmNZ-6" value="&lt;span style=&quot;font-size: 25px&quot;&gt;&amp;lt;h2&amp;gt;&lt;/span&gt;" style="text;html=1;strokeColor=none;fillColor=none;align=center;verticalAlign=middle;whiteSpace=wrap;rounded=0;" vertex="1" parent="1">
          <mxGeometry x="200" y="135" width="85" height="30" as="geometry" />
        </mxCell>
        <mxCell id="t7YPZ5av8xRuogo3YmNZ-8" style="edgeStyle=orthogonalEdgeStyle;rounded=0;orthogonalLoop=1;jettySize=auto;html=1;exitX=0.25;exitY=1;exitDx=0;exitDy=0;entryX=0.5;entryY=1;entryDx=0;entryDy=0;fontSize=25;" edge="1" parent="1" source="t7YPZ5av8xRuogo3YmNZ-7" target="t7YPZ5av8xRuogo3YmNZ-7">
          <mxGeometry relative="1" as="geometry" />
        </mxCell>
        <mxCell id="t7YPZ5av8xRuogo3YmNZ-9" value="" style="rounded=0;whiteSpace=wrap;html=1;fontSize=25;" vertex="1" parent="1">
          <mxGeometry x="130" y="180" width="490" height="130" as="geometry" />
        </mxCell>
        <mxCell id="t7YPZ5av8xRuogo3YmNZ-10" value="&lt;span style=&quot;font-size: 25px&quot;&gt;&amp;lt;h2&amp;gt;&lt;/span&gt;" style="text;html=1;strokeColor=none;fillColor=none;align=center;verticalAlign=middle;whiteSpace=wrap;rounded=0;" vertex="1" parent="1">
          <mxGeometry x="130" y="185" width="85" height="30" as="geometry" />
        </mxCell>
        <mxCell id="t7YPZ5av8xRuogo3YmNZ-14" value="" style="rounded=0;whiteSpace=wrap;html=1;fontSize=25;" vertex="1" parent="1">
          <mxGeometry x="340" y="140" width="260" height="20" as="geometry" />
        </mxCell>
        <mxCell id="t7YPZ5av8xRuogo3YmNZ-7" value="&lt;span style=&quot;font-size: 25px&quot;&gt;&amp;lt;input/&amp;gt;&lt;/span&gt;" style="text;html=1;strokeColor=none;fillColor=none;align=center;verticalAlign=middle;whiteSpace=wrap;rounded=0;" vertex="1" parent="1">
          <mxGeometry x="440" y="135" width="85" height="30" as="geometry" />
        </mxCell>
        <mxCell id="t7YPZ5av8xRuogo3YmNZ-15" value="" style="rounded=0;whiteSpace=wrap;html=1;fontSize=25;" vertex="1" parent="1">
          <mxGeometry x="215" y="195" width="390" height="100" as="geometry" />
        </mxCell>
        <mxCell id="t7YPZ5av8xRuogo3YmNZ-11" value="&lt;span style=&quot;font-size: 25px&quot;&gt;&amp;lt;input/&amp;gt;&lt;/span&gt;" style="text;html=1;strokeColor=none;fillColor=none;align=center;verticalAlign=middle;whiteSpace=wrap;rounded=0;" vertex="1" parent="1">
          <mxGeometry x="230" y="195" width="85" height="30" as="geometry" />
        </mxCell>
        <mxCell id="t7YPZ5av8xRuogo3YmNZ-17" value="" style="rounded=0;whiteSpace=wrap;html=1;fontSize=25;" vertex="1" parent="1">
          <mxGeometry x="130" y="320" width="490" height="160" as="geometry" />
        </mxCell>
        <mxCell id="t7YPZ5av8xRuogo3YmNZ-19" value="&lt;span style=&quot;font-size: 25px&quot;&gt;&amp;lt;label/&amp;gt;&lt;/span&gt;" style="text;html=1;strokeColor=none;fillColor=none;align=center;verticalAlign=middle;whiteSpace=wrap;rounded=0;" vertex="1" parent="1">
          <mxGeometry x="215" y="330" width="85" height="30" as="geometry" />
        </mxCell>
        <mxCell id="t7YPZ5av8xRuogo3YmNZ-21" value="&lt;span style=&quot;font-size: 25px&quot;&gt;&amp;lt;checkbox/&amp;gt;&lt;/span&gt;" style="text;html=1;strokeColor=none;fillColor=none;align=center;verticalAlign=middle;whiteSpace=wrap;rounded=0;" vertex="1" parent="1">
          <mxGeometry x="255" y="360" width="85" height="30" as="geometry" />
        </mxCell>
        <mxCell id="t7YPZ5av8xRuogo3YmNZ-22" value="&lt;span style=&quot;font-size: 25px&quot;&gt;&amp;lt;checkbox/&amp;gt;&lt;/span&gt;" style="text;html=1;strokeColor=none;fillColor=none;align=center;verticalAlign=middle;whiteSpace=wrap;rounded=0;" vertex="1" parent="1">
          <mxGeometry x="255" y="385" width="85" height="30" as="geometry" />
        </mxCell>
        <mxCell id="t7YPZ5av8xRuogo3YmNZ-24" value="&lt;span style=&quot;font-size: 25px&quot;&gt;&amp;lt;checkbox/&amp;gt;&lt;/span&gt;" style="text;html=1;strokeColor=none;fillColor=none;align=center;verticalAlign=middle;whiteSpace=wrap;rounded=0;" vertex="1" parent="1">
          <mxGeometry x="255" y="410" width="85" height="30" as="geometry" />
        </mxCell>
        <mxCell id="t7YPZ5av8xRuogo3YmNZ-25" value="&lt;span style=&quot;font-size: 25px&quot;&gt;&amp;lt;checkbox/&amp;gt;&lt;/span&gt;" style="text;html=1;strokeColor=none;fillColor=none;align=center;verticalAlign=middle;whiteSpace=wrap;rounded=0;" vertex="1" parent="1">
          <mxGeometry x="255" y="440" width="85" height="30" as="geometry" />
        </mxCell>
        <mxCell id="t7YPZ5av8xRuogo3YmNZ-26" value="&lt;span style=&quot;font-size: 25px&quot;&gt;&amp;lt;h3/&amp;gt;&lt;/span&gt;" style="text;html=1;strokeColor=none;fillColor=none;align=center;verticalAlign=middle;whiteSpace=wrap;rounded=0;" vertex="1" parent="1">
          <mxGeometry x="400" y="360" width="85" height="30" as="geometry" />
        </mxCell>
        <mxCell id="t7YPZ5av8xRuogo3YmNZ-27" value="&lt;span style=&quot;font-size: 25px&quot;&gt;&amp;lt;h3/&amp;gt;&lt;/span&gt;" style="text;html=1;strokeColor=none;fillColor=none;align=center;verticalAlign=middle;whiteSpace=wrap;rounded=0;" vertex="1" parent="1">
          <mxGeometry x="400" y="385" width="85" height="30" as="geometry" />
        </mxCell>
        <mxCell id="t7YPZ5av8xRuogo3YmNZ-28" value="&lt;span style=&quot;font-size: 25px&quot;&gt;&amp;lt;h3/&amp;gt;&lt;/span&gt;" style="text;html=1;strokeColor=none;fillColor=none;align=center;verticalAlign=middle;whiteSpace=wrap;rounded=0;" vertex="1" parent="1">
          <mxGeometry x="400" y="440" width="85" height="30" as="geometry" />
        </mxCell>
        <mxCell id="t7YPZ5av8xRuogo3YmNZ-29" value="&lt;span style=&quot;font-size: 25px&quot;&gt;&amp;lt;h3/&amp;gt;&lt;/span&gt;" style="text;html=1;strokeColor=none;fillColor=none;align=center;verticalAlign=middle;whiteSpace=wrap;rounded=0;" vertex="1" parent="1">
          <mxGeometry x="400" y="415" width="85" height="30" as="geometry" />
        </mxCell>
        <mxCell id="t7YPZ5av8xRuogo3YmNZ-30" value="" style="rounded=0;whiteSpace=wrap;html=1;fontSize=25;" vertex="1" parent="1">
          <mxGeometry x="130" y="490" width="490" height="90" as="geometry" />
        </mxCell>
        <mxCell id="t7YPZ5av8xRuogo3YmNZ-32" value="&lt;span style=&quot;font-size: 25px&quot;&gt;&amp;lt;label/&amp;gt;&lt;/span&gt;" style="text;html=1;strokeColor=none;fillColor=none;align=center;verticalAlign=middle;whiteSpace=wrap;rounded=0;" vertex="1" parent="1">
          <mxGeometry x="325" y="490" width="85" height="30" as="geometry" />
        </mxCell>
        <mxCell id="t7YPZ5av8xRuogo3YmNZ-33" value="&lt;span style=&quot;font-size: 25px&quot;&gt;&amp;lt;checkbox/&amp;gt;&lt;/span&gt;" style="text;html=1;strokeColor=none;fillColor=none;align=center;verticalAlign=middle;whiteSpace=wrap;rounded=0;" vertex="1" parent="1">
          <mxGeometry x="270" y="520" width="85" height="30" as="geometry" />
        </mxCell>
        <mxCell id="t7YPZ5av8xRuogo3YmNZ-34" value="&lt;span style=&quot;font-size: 25px&quot;&gt;&amp;lt;h3/&amp;gt;&lt;/span&gt;" style="text;html=1;strokeColor=none;fillColor=none;align=center;verticalAlign=middle;whiteSpace=wrap;rounded=0;" vertex="1" parent="1">
          <mxGeometry x="383" y="520" width="85" height="30" as="geometry" />
        </mxCell>
        <mxCell id="t7YPZ5av8xRuogo3YmNZ-38" value="&lt;span style=&quot;font-size: 25px&quot;&gt;&amp;lt;checkbox/&amp;gt;&lt;/span&gt;" style="text;html=1;strokeColor=none;fillColor=none;align=center;verticalAlign=middle;whiteSpace=wrap;rounded=0;" vertex="1" parent="1">
          <mxGeometry x="268.5" y="540" width="85" height="30" as="geometry" />
        </mxCell>
        <mxCell id="t7YPZ5av8xRuogo3YmNZ-39" value="&lt;span style=&quot;font-size: 25px&quot;&gt;&amp;lt;h3/&amp;gt;&lt;/span&gt;" style="text;html=1;strokeColor=none;fillColor=none;align=center;verticalAlign=middle;whiteSpace=wrap;rounded=0;" vertex="1" parent="1">
          <mxGeometry x="381.5" y="540" width="85" height="30" as="geometry" />
        </mxCell>
        <mxCell id="t7YPZ5av8xRuogo3YmNZ-40" value="" style="rounded=0;whiteSpace=wrap;html=1;fontSize=25;" vertex="1" parent="1">
          <mxGeometry x="130" y="590" width="490" height="40" as="geometry" />
        </mxCell>
        <mxCell id="t7YPZ5av8xRuogo3YmNZ-41" value="&lt;span style=&quot;font-size: 25px&quot;&gt;&amp;lt;h2&amp;gt;&lt;/span&gt;" style="text;html=1;strokeColor=none;fillColor=none;align=center;verticalAlign=middle;whiteSpace=wrap;rounded=0;" vertex="1" parent="1">
          <mxGeometry x="200" y="595" width="85" height="30" as="geometry" />
        </mxCell>
        <mxCell id="t7YPZ5av8xRuogo3YmNZ-42" value="" style="rounded=0;whiteSpace=wrap;html=1;fontSize=25;" vertex="1" parent="1">
          <mxGeometry x="340" y="600" width="260" height="20" as="geometry" />
        </mxCell>
        <mxCell id="t7YPZ5av8xRuogo3YmNZ-43" value="&lt;span style=&quot;font-size: 25px&quot;&gt;&amp;lt;input/&amp;gt;&lt;/span&gt;" style="text;html=1;strokeColor=none;fillColor=none;align=center;verticalAlign=middle;whiteSpace=wrap;rounded=0;" vertex="1" parent="1">
          <mxGeometry x="440" y="595" width="85" height="30" as="geometry" />
        </mxCell>
      </root>
    </mxGraphModel>
  </diagram>
</mxfile>
